<!DOCTYPE svg PUBLIC "-//W3C//DTD SVG 1.1//EN" "http://www.w3.org/Graphics/SVG/1.1/DTD/svg11.dtd">
<!-- Uploaded to: SVG Repo, www.svgrepo.com, Transformed by: SVG Repo Mixer Tools -->
<svg fill="#000000" width="800px" height="800px" viewBox="-3.2 -3.2 38.40 38.40" id="icon" xmlns="http://www.w3.org/2000/svg">
<g id="SVGRepo_bgCarrier" stroke-width="0">
<path transform="translate(-3.2, -3.2), scale(1.2)" d="M16,27.420235322459654C18.909344310841654,27.09221027418168,21.937599835298826,27.594060793107875,24.401329427492655,26.012314527781832C27.11252711124097,24.27169054679905,29.733613242324964,21.674924776777765,29.955368802212718,18.460708045567277C30.170854108545875,15.337374960720894,27.00407067953178,13.26165570463975,25.469286389912053,10.53290495375062C23.905164160181034,7.751993174989573,23.77850446732917,3.8852490051075987,20.939009371239635,2.430183278044332C18.00352884005049,0.9259309483688458,14.541906970939733,2.36570842270796,11.38284658002572,3.3144752364629806C7.990453606664694,4.333319283128839,4.154676170287953,5.076400703060248,2.229099932242544,8.049367138896788C0.261689048877793,11.086923588845558,0.8700738664060479,14.992969845331624,1.5118575077427039,18.55465042173374C2.1509934453036688,22.101637144159923,2.768690419053905,26.223580834840693,5.842905042625045,28.104754405772127C8.827363178048907,29.93100418184953,12.523147109939808,27.812246275878728,16,27.420235322459654" fill="#b8b8b8" strokewidth="0"/>
</g>
<g id="SVGRepo_tracerCarrier" stroke-linecap="round" stroke-linejoin="round"/>
<g id="SVGRepo_iconCarrier"> <defs> <style> .cls-1 { fill: none; } </style> </defs> <path d="M21,2a8.9977,8.9977,0,0,0-8.6119,11.6118L2,24v6H8L18.3881,19.6118A9,9,0,1,0,21,2Zm0,16a7.0125,7.0125,0,0,1-2.0322-.3022L17.821,17.35l-.8472.8472-3.1811,3.1812L12.4141,20,11,21.4141l1.3787,1.3786-1.5859,1.586L9.4141,23,8,24.4141l1.3787,1.3786L7.1716,28H4V24.8284l9.8023-9.8023.8472-.8474-.3473-1.1467A7,7,0,1,1,21,18Z"/> <circle cx="22" cy="10" r="2"/> <rect id="_Transparent_Rectangle_" data-name="&lt;Transparent Rectangle&gt;" class="cls-1" width="32" height="32"/> </g>
</svg>